<svg xmlns="http://www.w3.org/2000/svg" width="43.716" height="43.716" viewBox="0 0 43.716 43.716">
  <g id="addButton" transform="translate(-166 -759.404)">
    <g id="Path_8" data-name="Path 8" transform="translate(166 759.404)" fill="none">
      <path d="M21.858,0A21.858,21.858,0,1,1,0,21.858,21.858,21.858,0,0,1,21.858,0Z" stroke="none"/>
      <path d="M 21.8580322265625 1.000003814697266 C 19.04177284240723 1.000003814697266 16.3102912902832 1.551342010498047 13.73945236206055 2.638721466064453 C 11.25581359863281 3.689212799072266 9.025062561035156 5.193290710449219 7.109172821044922 7.109172821044922 C 5.193290710449219 9.025062561035156 3.689212799072266 11.25581359863281 2.638721466064453 13.73945236206055 C 1.551342010498047 16.3102912902832 1.000003814697266 19.04177284240723 1.000003814697266 21.8580322265625 C 1.000003814697266 24.67429161071777 1.551342010498047 27.4057731628418 2.638721466064453 29.97661209106445 C 3.689212799072266 32.46025085449219 5.193290710449219 34.69100189208984 7.109172821044922 36.60689163208008 C 9.025062561035156 38.52277374267578 11.25581359863281 40.02685165405273 13.73945236206055 41.07734298706055 C 16.3102912902832 42.16472244262695 19.04177284240723 42.71606063842773 21.8580322265625 42.71606063842773 C 24.67429161071777 42.71606063842773 27.4057731628418 42.16472244262695 29.97661209106445 41.07734298706055 C 32.46025085449219 40.02685165405273 34.69100189208984 38.52277374267578 36.60689163208008 36.60689163208008 C 38.52277374267578 34.69100189208984 40.02685165405273 32.46025085449219 41.07734298706055 29.97661209106445 C 42.16472244262695 27.4057731628418 42.71606063842773 24.67429161071777 42.71606063842773 21.8580322265625 C 42.71606063842773 19.04177284240723 42.16472244262695 16.3102912902832 41.07734298706055 13.73945236206055 C 40.02685165405273 11.25581359863281 38.52277374267578 9.025062561035156 36.60689163208008 7.109172821044922 C 34.69100189208984 5.193290710449219 32.46025085449219 3.689212799072266 29.97661209106445 2.638721466064453 C 27.4057731628418 1.551342010498047 24.67429161071777 1.000003814697266 21.8580322265625 1.000003814697266 M 21.8580322265625 3.814697265625e-06 C 33.92989349365234 3.814697265625e-06 43.71606063842773 9.786170959472656 43.71606063842773 21.8580322265625 C 43.71606063842773 33.92989349365234 33.92989349365234 43.71606063842773 21.8580322265625 43.71606063842773 C 9.786170959472656 43.71606063842773 3.814697265625e-06 33.92989349365234 3.814697265625e-06 21.8580322265625 C 3.814697265625e-06 9.786170959472656 9.786170959472656 3.814697265625e-06 21.8580322265625 3.814697265625e-06 Z" stroke="none" fill="#489253"/>
    </g>
    <path id="Union_1" data-name="Union 1" d="M10.976,25.327v-7.6h-7.6a3.377,3.377,0,0,1,0-6.755h7.6v-7.6a3.377,3.377,0,0,1,6.754,0v7.6h7.6a3.377,3.377,0,1,1,0,6.755h-7.6v7.6a3.377,3.377,0,1,1-6.754,0Z" transform="translate(174 767.663)" fill="#489253"/>
  </g>
</svg>
