<svg xmlns="http://www.w3.org/2000/svg" width="37.079" height="36.766" viewBox="0 0 37.079 36.766">
  <g id="dashboard" transform="translate(-19 -757.849)">
    <path id="Rectangle_1" data-name="Rectangle 1" d="M5,0h5.647a5,5,0,0,1,5,5V15.647a0,0,0,0,1,0,0H5a5,5,0,0,1-5-5V5A5,5,0,0,1,5,0Z" transform="translate(19 760.192)" fill="#48174a"/>
    <path id="Rectangle_2" data-name="Rectangle 2" d="M5,0H15.647a0,0,0,0,1,0,0V10.647a5,5,0,0,1-5,5H5a5,5,0,0,1-5-5V5A5,5,0,0,1,5,0Z" transform="translate(19 778.968)" fill="#48174a"/>
    <path id="Rectangle_3" data-name="Rectangle 3" d="M0,0H10.647a5,5,0,0,1,5,5v5.647a5,5,0,0,1-5,5H5a5,5,0,0,1-5-5V0A0,0,0,0,1,0,0Z" transform="translate(37.776 778.968)" fill="#48174a"/>
    <line id="Line_6" data-name="Line 6" y2="15.647" transform="translate(45.756 760.349)" fill="none" stroke="#48174a" stroke-linecap="round" stroke-width="5"/>
    <line id="Line_7" data-name="Line 7" y2="15.647" transform="translate(53.579 768.172) rotate(90)" fill="none" stroke="#48174a" stroke-linecap="round" stroke-width="5"/>
  </g>
</svg>
