<svg xmlns="http://www.w3.org/2000/svg" width="51.159" height="29.17" viewBox="0 0 51.159 29.17">
  <path id="outline-timeline-24px" d="M52.159,10.862a4.774,4.774,0,0,1-4.651,4.862,3.793,3.793,0,0,1-1.186-.17l-8.278,8.629a4.476,4.476,0,0,1,.163,1.264,4.655,4.655,0,1,1-9.3,0,4.476,4.476,0,0,1,.163-1.264l-5.93-6.2a4.382,4.382,0,0,1-2.418,0L10.139,29.069a4.307,4.307,0,0,1,.163,1.24A4.774,4.774,0,0,1,5.651,35.17a4.866,4.866,0,0,1,0-9.723,3.793,3.793,0,0,1,1.186.17l10.6-11.06a4.476,4.476,0,0,1-.163-1.264,4.774,4.774,0,0,1,4.651-4.862,4.774,4.774,0,0,1,4.651,4.862,4.476,4.476,0,0,1-.163,1.264l5.93,6.2a4.382,4.382,0,0,1,2.418,0L43.02,12.1a4.307,4.307,0,0,1-.163-1.24,4.655,4.655,0,1,1,9.3,0Z" transform="translate(-1 -6)" fill="#dedede"/>
</svg>
