<svg xmlns="http://www.w3.org/2000/svg" width="30" height="31.53" viewBox="0 0 30 31.53">
  <g id="baseline-settings-20px" transform="translate(-330.384 -9.945)">
    <path id="Path_2" data-name="Path 2" d="M28.7,19.3a13.139,13.139,0,0,0,.1-1.537,9.927,9.927,0,0,0-.116-1.537l3.259-2.6a.827.827,0,0,0,.193-1.005L29.045,7.163a.776.776,0,0,0-.945-.355L24.262,8.385a11.243,11.243,0,0,0-2.6-1.537L21.08,2.67A.775.775,0,0,0,20.308,2H14.137a.756.756,0,0,0-.752.67l-.579,4.178a11.544,11.544,0,0,0-2.6,1.537L6.364,6.808a.755.755,0,0,0-.945.355L2.333,12.622a.775.775,0,0,0,.193,1.005l3.259,2.6A9.487,9.487,0,0,0,5.766,19.3L2.507,21.9a.827.827,0,0,0-.193,1.005L5.4,28.367a.776.776,0,0,0,.945.355l3.838-1.577a11.243,11.243,0,0,0,2.6,1.537l.579,4.178a.79.79,0,0,0,.771.67h6.172a.742.742,0,0,0,.752-.67l.579-4.178a11.544,11.544,0,0,0,2.6-1.537l3.838,1.577a.755.755,0,0,0,.945-.355l3.086-5.459a.775.775,0,0,0-.193-1.005L28.7,19.3ZM17.222,23.677a5.913,5.913,0,1,1,5.786-5.912A5.867,5.867,0,0,1,17.222,23.677Z" transform="translate(328.161 7.945)" fill="#dedede"/>
  </g>
</svg>
