<svg xmlns="http://www.w3.org/2000/svg" width="34.042" height="32.25" viewBox="0 0 34.042 32.25">
  <g id="wallet" transform="translate(-92.375 -762.481)">
    <path id="Path_26" data-name="Path 26" d="M35.25,10.668V6.583A3.594,3.594,0,0,0,31.667,3H6.583A3.582,3.582,0,0,0,3,6.583V31.667A3.582,3.582,0,0,0,6.583,35.25H31.667a3.594,3.594,0,0,0,3.583-3.583V27.582A3.585,3.585,0,0,0,37.042,24.5V13.75A3.585,3.585,0,0,0,35.25,10.668ZM33.458,13.75V24.5H20.917V13.75ZM6.583,31.667V6.583H31.667v3.583H20.917a3.594,3.594,0,0,0-3.583,3.583V24.5a3.594,3.594,0,0,0,3.583,3.583h10.75v3.583Z" transform="translate(89.375 759.481)" fill="#dedede"/>
    <circle id="Ellipse_2" data-name="Ellipse 2" cx="2.688" cy="2.688" r="2.688" transform="translate(112.979 775.919)" fill="#dedede"/>
  </g>
</svg>
